<?xml version="1.0" encoding="utf-8"?>
<!-- Generator: Adobe Illustrator 24.0.1, SVG Export Plug-In . SVG Version: 6.00 Build 0)  -->
<svg version="1.1" id="Layer_1" xmlns="http://www.w3.org/2000/svg" xmlns:xlink="http://www.w3.org/1999/xlink" x="0px" y="0px"
	 viewBox="0 0 768 768" style="enable-background:new 0 0 768 768;" xml:space="preserve">
<style type="text/css">
	.Arched_x0020_Green{fill:url(#SVGID_1_);stroke:#FFFFFF;stroke-width:0.25;stroke-miterlimit:1;}
</style>
<linearGradient id="SVGID_1_" gradientUnits="userSpaceOnUse" x1="-501" y1="640" x2="-500.2929" y2="639.2929">
	<stop  offset="0" style="stop-color:#1EAB4B"/>
	<stop  offset="0.9831" style="stop-color:#19361A"/>
</linearGradient>
<g>
	<path d="M418.6,270.3h38.1v91.2h0.7c10.4-17.3,32.1-28,51.4-28c54.4,0,80.8,42.8,80.8,95c0,48-23.4,93.3-74.5,93.3
		c-23.4,0-48.4-5.9-59.8-29.4h-0.7V517h-36.1L418.6,270.3L418.6,270.3z M503.7,364.6c-32,0-48.4,25.2-48.4,63.2
		c0,35.9,17.7,62.9,48.4,62.9c34.7,0,47.8-31.8,47.8-62.9C551.5,395.4,535.1,364.6,503.7,364.6"/>
	<path d="M729.9,398.1c-3-21.8-18.4-33.5-39.4-33.5c-19.7,0-47.4,10.7-47.4,64.9c0,29.7,12.7,61.1,45.7,61.1
		c22,0,37.4-15.2,41.1-40.8H768c-7,46.3-34.7,71.9-79.1,71.9c-54.1,0-83.8-39.7-83.8-92.2c0-53.9,28.4-96,85.1-96
		c40.1,0,74.1,20.7,77.8,64.6H729.9L729.9,398.1z"/>
	<polygon points="285.5,516.4 0,516.4 133.3,270.3 418.8,270.3 	"/>
</g>
</svg>
