<svg xmlns="http://www.w3.org/2000/svg" viewBox="0 0 40 40"><path d="M16.66667,13.635a.68981.68981,0,0,1,1.37931,0v14.85a.68981.68981,0,0,1-1.37931,0Z"/><path d="M13.90805,16.335a.68981.68981,0,0,1,1.37931,0v12.15a.68981.68981,0,0,1-1.37931,0Z"/><path d="M11.14943,15.435a.68981.68981,0,0,1,1.37931,0v13.05a.68981.68981,0,0,1-1.37931,0Z"/><path d="M8.3908,17.235a.68981.68981,0,0,1,1.37931,0v11.25a.68981.68981,0,0,1-1.37931,0Z"/><path d="M5.63218,20.835a.68981.68981,0,0,1,1.37931,0v7.65a.68981.68981,0,0,1-1.37931,0Z"/><path d="M2.87356,19.935a.68981.68981,0,0,1,1.37931,0v8.55a.68981.68981,0,0,1-1.37931,0Z"/><path d="M.11494,21.735A.6827.6827,0,0,1,.8046,21.06a.68269.68269,0,0,1,.68965.675v4.95a.68269.68269,0,0,1-.68965.675.6827.6827,0,0,1-.68966-.675Z"/><path d="M23.33333,11.16a9.14055,9.14055,0,0,1,9.07628,7.5513,5.608,5.608,0,0,1,1.95821-.3513,5.40125,5.40125,0,1,1,0,10.8H20.57534a1.36677,1.36677,0,0,1-1.37994-1.35129V13.41c0-2.25,4.13793-2.25,4.13793-2.25"/></svg>
